<svg xmlns="http://www.w3.org/2000/svg" width="64" height="64" aria-label="Pixel lobster" role="img" viewBox="0 0 16 16"><rect width="16" height="16" fill="none"/><g fill="#3a0a0d"><rect width="1" height="3" x="1" y="5"/><rect width="1" height="1" x="2" y="4"/><rect width="1" height="1" x="2" y="8"/><rect width="1" height="1" x="3" y="3"/><rect width="1" height="1" x="3" y="9"/><rect width="1" height="1" x="4" y="2"/><rect width="1" height="1" x="4" y="10"/><rect width="6" height="1" x="5" y="2"/><rect width="1" height="1" x="11" y="2"/><rect width="1" height="1" x="12" y="3"/><rect width="1" height="1" x="12" y="9"/><rect width="1" height="1" x="13" y="4"/><rect width="1" height="1" x="13" y="8"/><rect width="1" height="3" x="14" y="5"/><rect width="6" height="1" x="5" y="11"/><rect width="1" height="1" x="4" y="12"/><rect width="1" height="1" x="11" y="12"/><rect width="1" height="1" x="3" y="13"/><rect width="1" height="1" x="12" y="13"/><rect width="6" height="1" x="5" y="14"/></g><g fill="#ff4f40"><rect width="6" height="1" x="5" y="3"/><rect width="8" height="1" x="4" y="4"/><rect width="10" height="1" x="3" y="5"/><rect width="10" height="1" x="3" y="6"/><rect width="10" height="1" x="3" y="7"/><rect width="8" height="1" x="4" y="8"/><rect width="6" height="1" x="5" y="9"/><rect width="6" height="1" x="5" y="12"/><rect width="4" height="1" x="6" y="13"/></g><g fill="#ff775f"><rect width="2" height="1" x="1" y="6"/><rect width="1" height="1" x="2" y="5"/><rect width="1" height="1" x="2" y="7"/><rect width="2" height="1" x="13" y="6"/><rect width="1" height="1" x="13" y="5"/><rect width="1" height="1" x="13" y="7"/></g><g fill="#081016"><rect width="1" height="1" x="6" y="5"/><rect width="1" height="1" x="9" y="5"/></g><g fill="#f5fbff"><rect width="1" height="1" x="6" y="4"/><rect width="1" height="1" x="9" y="4"/></g></svg>